<?xml version="1.0" standalone="no"?>
<!DOCTYPE svg PUBLIC "-//W3C//DTD SVG 1.1//EN" "http://www.w3.org/Graphics/SVG/1.1/DTD/svg11.dtd" >
<svg xmlns="http://www.w3.org/2000/svg">
<metadata>Generated by IcoMoon</metadata>
<defs>
<font id="vnecoms-message" horiz-adv-x="1024">
<font-face units-per-em="1024" ascent="877.8572825024438" descent="-146.14271749755622" />
<missing-glyph horiz-adv-x="1024" />
<glyph unicode="&#x20;" horiz-adv-x="256.25024437927664" d="" />
<glyph unicode="&#xe906;" glyph-name="pencil2" d="M384 256l128 64 448 448-64 64-448-448-64-128zM289.3 28.902c-31.632 66.728-65.666 100.762-132.396 132.394l99.096 272.792 128 77.912 384 384h-192l-384-384-192-640 640 192 384 384v192l-384-384-77.912-128z" />
<glyph unicode="&#xe90d;" glyph-name="image" d="M959.884 768c0.040-0.034 0.082-0.076 0.116-0.116v-767.77c-0.034-0.040-0.076-0.082-0.116-0.116h-895.77c-0.040 0.034-0.082 0.076-0.114 0.116v767.772c0.034 0.040 0.076 0.082 0.114 0.114h895.77zM960 832h-896c-35.2 0-64-28.8-64-64v-768c0-35.2 28.8-64 64-64h896c35.2 0 64 28.8 64 64v768c0 35.2-28.8 64-64 64v0zM832 608c0-53.020-42.98-96-96-96s-96 42.98-96 96 42.98 96 96 96 96-42.98 96-96zM896 64h-768v128l224 384 256-320h64l224 192z" />
<glyph unicode="&#xe924;" glyph-name="file-empty2" d="M917.806 666.924c-22.212 30.292-53.174 65.7-87.178 99.704s-69.412 64.964-99.704 87.178c-51.574 37.82-76.592 42.194-90.924 42.194h-496c-44.112 0-80-35.888-80-80v-864c0-44.112 35.888-80 80-80h736c44.112 0 80 35.888 80 80v624c0 14.332-4.372 39.35-42.194 90.924zM785.374 721.374c30.7-30.7 54.8-58.398 72.58-81.374h-153.954v153.946c22.984-17.78 50.678-41.878 81.374-72.572zM896-48c0-8.672-7.328-16-16-16h-736c-8.672 0-16 7.328-16 16v864c0 8.672 7.328 16 16 16 0 0 495.956 0.002 496 0v-224c0-17.672 14.326-32 32-32h224v-624z" />
<glyph unicode="&#xe925;" glyph-name="file-empty" d="M918.703 653.719c-22.234 30.322-53.226 65.764-87.263 99.801s-69.48 65.028-99.801 87.263c-51.624 37.857-76.667 42.235-91.013 42.235h-496.485c-44.155 0-80.078-35.923-80.078-80.078v-864.845c0-44.155 35.923-80.078 80.078-80.078h736.719c44.155 0 80.078 35.923 80.078 80.078v624.61c0 14.346-4.376 39.388-42.235 91.013zM786.142 708.222c30.73-30.73 54.854-58.455 72.651-81.454h-154.104v154.096c23.006-17.797 50.728-41.919 81.454-72.643zM896.876-61.904c0-8.68-7.335-16.016-16.016-16.016h-736.719c-8.68 0-16.016 7.335-16.016 16.016v864.845c0 8.68 7.335 16.016 16.016 16.016 0 0 496.441 0.002 496.485 0v-224.219c0-17.689 14.34-32.031 32.031-32.031h224.219v-624.61z" />
<glyph unicode="&#xe92a;" glyph-name="file-video2" d="M917.806 666.924c-22.208 30.292-53.174 65.7-87.178 99.704s-69.412 64.964-99.704 87.178c-51.574 37.82-76.594 42.194-90.924 42.194h-496c-44.112 0-80-35.888-80-80v-864c0-44.112 35.882-80 80-80h736c44.112 0 80 35.888 80 80v624c0 14.332-4.372 39.35-42.194 90.924v0 0zM785.374 721.374c30.7-30.7 54.8-58.398 72.58-81.374h-153.954v153.946c22.98-17.78 50.678-41.878 81.374-72.572v0 0zM896-48c0-8.672-7.328-16-16-16h-736c-8.672 0-16 7.328-16 16v864c0 8.672 7.328 16 16 16 0 0 495.956 0.002 496 0v-224c0-17.672 14.32-32 32-32h224v-624zM256 384h320v-320h-320v320zM576 256l192 128v-320l-192 128z" />
<glyph unicode="&#xe92b;" glyph-name="file-zip2" d="M917.806 666.924c-22.208 30.292-53.174 65.7-87.178 99.704s-69.412 64.964-99.704 87.178c-51.574 37.82-76.592 42.194-90.924 42.194h-496c-44.112 0-80-35.888-80-80v-864c0-44.112 35.884-80 80-80h736c44.112 0 80 35.888 80 80v624c0 14.332-4.372 39.35-42.194 90.924v0 0zM785.374 721.374c30.7-30.7 54.8-58.398 72.58-81.374h-153.954v153.946c22.98-17.78 50.678-41.878 81.374-72.572v0 0zM896-48c0-8.672-7.328-16-16-16h-736c-8.672 0-16 7.328-16 16v864c0 8.672 7.328 16 16 16 0 0 495.956 0.002 496 0v-224c0-17.672 14.322-32 32-32h224v-624zM256 832h128v-64h-128v64zM384 768h128v-64h-128v64zM256 704h128v-64h-128v64zM384 640h128v-64h-128v64zM256 576h128v-64h-128v64zM384 512h128v-64h-128v64zM256 448h128v-64h-128v64zM384 384h128v-64h-128v64zM256 48c0-26.4 21.6-48 48-48h160c26.4 0 48 21.6 48 48v160c0 26.4-21.6 48-48 48h-80v64h-128v-272zM448 128v-64h-128v64h128z" />
<glyph unicode="&#xe92c;" glyph-name="file-video" d="M918.703 653.719c-22.23 30.322-53.226 65.764-87.263 99.801s-69.48 65.028-99.801 87.263c-51.624 37.857-76.669 42.235-91.013 42.235h-496.485c-44.155 0-80.078-35.923-80.078-80.078v-864.845c0-44.155 35.917-80.078 80.078-80.078h736.719c44.155 0 80.078 35.923 80.078 80.078v624.61c0 14.346-4.376 39.388-42.235 91.013v0 0zM786.142 708.222c30.73-30.73 54.854-58.455 72.651-81.454h-154.104v154.096c23.002-17.797 50.728-41.919 81.454-72.643v0 0zM896.876-61.904c0-8.68-7.335-16.016-16.016-16.016h-736.719c-8.68 0-16.016 7.335-16.016 16.016v864.845c0 8.68 7.335 16.016 16.016 16.016 0 0 496.441 0.002 496.485 0v-224.219c0-17.689 14.334-32.031 32.031-32.031h224.219v-624.61zM256.25 370.518h320.313v-320.313h-320.313v320.313zM576.563 242.393l192.188 128.125v-320.313l-192.188 128.125z" />
<glyph unicode="&#xe92d;" glyph-name="file-zip" d="M918.703 653.719c-22.23 30.322-53.226 65.764-87.263 99.801s-69.48 65.028-99.801 87.263c-51.624 37.857-76.667 42.235-91.013 42.235h-496.485c-44.155 0-80.078-35.923-80.078-80.078v-864.845c0-44.155 35.919-80.078 80.078-80.078h736.719c44.155 0 80.078 35.923 80.078 80.078v624.61c0 14.346-4.376 39.388-42.235 91.013v0 0zM786.142 708.222c30.73-30.73 54.854-58.455 72.651-81.454h-154.104v154.096c23.002-17.797 50.728-41.919 81.454-72.643v0 0zM896.876-61.904c0-8.68-7.335-16.016-16.016-16.016h-736.719c-8.68 0-16.016 7.335-16.016 16.016v864.845c0 8.68 7.335 16.016 16.016 16.016 0 0 496.441 0.002 496.485 0v-224.219c0-17.689 14.336-32.031 32.031-32.031h224.219v-624.61zM256.25 818.956h128.125v-64.063h-128.125v64.063zM384.375 754.893h128.125v-64.063h-128.125v64.063zM256.25 690.831h128.125v-64.063h-128.125v64.063zM384.375 626.768h128.125v-64.063h-128.125v64.063zM256.25 562.706h128.125v-64.063h-128.125v64.063zM384.375 498.643h128.125v-64.063h-128.125v64.063zM256.25 434.581h128.125v-64.063h-128.125v64.063zM384.375 370.518h128.125v-64.063h-128.125v64.063zM256.25 34.19c0-26.426 21.621-48.047 48.047-48.047h160.156c26.426 0 48.047 21.621 48.047 48.047v160.156c0 26.426-21.621 48.047-48.047 48.047h-80.078v64.063h-128.125v-272.266zM448.438 114.268v-64.063h-128.125v64.063h128.125z" />
<glyph unicode="&#xe933;" glyph-name="folder-download" d="M576 640l-128 128h-448v-832h1024v704h-448zM512 32l-224 224h160v256h128v-256h160l-224-224z" />
<glyph unicode="&#xe934;" glyph-name="folder-upload" d="M576 640l-128 128h-448v-832h1024v704h-448zM512 416l224-224h-160v-256h-128v256h-160l224 224z" />
<glyph unicode="&#xe9cd;" glyph-name="attachment" d="M665.832 568.952l-64.952 64.922-324.81-324.742c-53.814-53.792-53.814-141.048 0-194.844 53.804-53.792 141.060-53.792 194.874 0l389.772 389.708c89.714 89.662 89.714 235.062 0 324.726-89.666 89.704-235.112 89.704-324.782 0l-409.23-409.178c-0.29-0.304-0.612-0.576-0.876-0.846-125.102-125.096-125.102-327.856 0-452.906 125.054-125.056 327.868-125.056 452.988 0 0.274 0.274 0.516 0.568 0.82 0.876l0.032-0.034 279.332 279.292-64.986 64.92-279.33-279.262c-0.296-0.268-0.564-0.57-0.846-0.844-89.074-89.058-233.98-89.058-323.076 0-89.062 89.042-89.062 233.922 0 322.978 0.304 0.304 0.604 0.582 0.888 0.846l-0.046 0.060 409.28 409.166c53.712 53.738 141.144 53.738 194.886 0 53.712-53.734 53.712-141.148 0-194.84l-389.772-389.7c-17.936-17.922-47.054-17.922-64.972 0-17.894 17.886-17.894 47.032 0 64.92l324.806 324.782z" />
<glyph unicode="&#xeadf;" glyph-name="file-pdf2" d="M842.012 306.52c-13.648 13.446-43.914 20.566-89.972 21.172-31.178 0.344-68.702-2.402-108.17-7.928-17.674 10.198-35.892 21.294-50.188 34.658-38.462 35.916-70.568 85.772-90.576 140.594 1.304 5.12 2.414 9.62 3.448 14.212 0 0 21.666 123.060 15.932 164.666-0.792 5.706-1.276 7.362-2.808 11.796l-1.882 4.834c-5.894 13.592-17.448 27.994-35.564 27.208l-10.916 0.344c-20.202 0-36.664-10.332-40.986-25.774-13.138-48.434 0.418-120.892 24.98-214.738l-6.288-15.286c-17.588-42.876-39.63-86.060-59.078-124.158l-2.528-4.954c-20.46-40.040-39.026-74.028-55.856-102.822l-17.376-9.188c-1.264-0.668-31.044-16.418-38.028-20.644-59.256-35.38-98.524-75.542-105.038-107.416-2.072-10.17-0.53-23.186 10.014-29.212l16.806-8.458c7.292-3.652 14.978-5.502 22.854-5.502 42.206 0 91.202 52.572 158.698 170.366 77.93 25.37 166.652 46.458 244.412 58.090 59.258-33.368 132.142-56.544 178.142-56.544 8.168 0 15.212 0.78 20.932 2.294 8.822 2.336 16.258 7.368 20.792 14.194 8.926 13.432 10.734 31.932 8.312 50.876-0.72 5.622-5.21 12.574-10.068 17.32zM211.646 81.952c7.698 21.042 38.16 62.644 83.206 99.556 2.832 2.296 9.808 8.832 16.194 14.902-47.104-75.124-78.648-105.066-99.4-114.458zM478.434 696.314c13.566 0 21.284-34.194 21.924-66.254s-6.858-54.56-16.158-71.208c-7.702 24.648-11.426 63.5-11.426 88.904 0 0-0.566 48.558 5.66 48.558v0zM398.852 258.506c9.45 16.916 19.282 34.756 29.33 53.678 24.492 46.316 39.958 82.556 51.478 112.346 22.91-41.684 51.444-77.12 84.984-105.512 4.186-3.542 8.62-7.102 13.276-10.65-68.21-13.496-127.164-29.91-179.068-49.862v0zM828.902 262.348c-4.152-2.598-16.052-4.1-23.708-4.1-24.708 0-55.272 11.294-98.126 29.666 16.468 1.218 31.562 1.838 45.102 1.838 24.782 0 32.12 0.108 56.35-6.072 24.228-6.18 24.538-18.734 20.382-21.332v0zM917.806 666.924c-22.21 30.292-53.174 65.7-87.178 99.704s-69.412 64.964-99.704 87.178c-51.574 37.82-76.592 42.194-90.924 42.194h-496c-44.112 0-80-35.888-80-80v-864c0-44.112 35.886-80 80-80h736c44.112 0 80 35.888 80 80v624c0 14.332-4.372 39.35-42.194 90.924v0zM785.374 721.374c30.7-30.7 54.8-58.398 72.58-81.374h-153.954v153.946c22.982-17.78 50.678-41.878 81.374-72.572v0zM896-48c0-8.672-7.328-16-16-16h-736c-8.672 0-16 7.328-16 16v864c0 8.672 7.328 16 16 16 0 0 495.956 0.002 496 0v-224c0-17.672 14.324-32 32-32h224v-624z" />
<glyph unicode="&#xeae0;" glyph-name="file-openoffice" d="M690.22 424.318c-60.668 28.652-137.97 34.42-194.834-6.048 69.14 6.604 144.958-4.838 195.106-57.124 48 55.080 124.116 65.406 192.958 59.732-57.488 38.144-133.22 33.024-193.23 3.44v0zM665.646 290.25c-68.376 1.578-134.434-23.172-191.1-60.104-107.176 45.588-242.736 37.124-334.002-38.982 26.33 0.934 52.006 7.446 78.056 10.792 95.182 9.488 196.588-14.142 268.512-79.824 29.772 43.542 71.644 78.242 119.652 99.922 63.074 30.52 134.16 33.684 202.82 34.52-41.688 28.648-94.614 33.954-143.938 33.676zM917.806 666.924c-22.21 30.292-53.174 65.7-87.178 99.704s-69.412 64.964-99.704 87.178c-51.574 37.82-76.592 42.194-90.924 42.194h-496c-44.112 0-80-35.888-80-80v-864c0-44.112 35.886-80 80-80h736c44.112 0 80 35.888 80 80v624c0 14.332-4.372 39.35-42.194 90.924v0zM785.374 721.374c30.7-30.7 54.8-58.398 72.58-81.374h-153.954v153.946c22.982-17.78 50.678-41.878 81.374-72.572v0zM896-48c0-8.672-7.328-16-16-16h-736c-8.672 0-16 7.328-16 16v864c0 8.672 7.328 16 16 16 0 0 495.956 0.002 496 0v-224c0-17.672 14.324-32 32-32h224v-624z" />
<glyph unicode="&#xeae1;" glyph-name="file-word2" d="M639.778 420.108h44.21l-51.012-226.178-66.324 318.010h-106.55l-77.114-318.010-57.816 318.010h-111.394l113.092-511.88h108.838l76.294 302.708 68.256-302.708h100.336l129.628 511.88h-170.446v-91.832zM917.806 666.924c-22.21 30.292-53.174 65.7-87.178 99.704s-69.412 64.964-99.704 87.178c-51.574 37.82-76.592 42.194-90.924 42.194h-496c-44.112 0-80-35.888-80-80v-864c0-44.112 35.886-80 80-80h736c44.112 0 80 35.888 80 80v624c0 14.332-4.372 39.35-42.194 90.924v0zM785.374 721.374c30.7-30.7 54.8-58.398 72.58-81.374h-153.954v153.946c22.982-17.78 50.678-41.878 81.374-72.572v0zM896-48c0-8.672-7.328-16-16-16h-736c-8.672 0-16 7.328-16 16v864c0 8.672 7.328 16 16 16 0 0 495.956 0.002 496 0v-224c0-17.672 14.324-32 32-32h224v-624z" />
<glyph unicode="&#xeae2;" glyph-name="file-excel2" d="M743.028 512h-135.292l-95.732-141.032-95.742 141.032h-135.29l162.162-242.464-182.972-269.536h251.838v91.576h-50.156l50.156 74.994 111.396-166.57h140.444l-182.976 269.536 162.164 242.464zM917.806 666.924c-22.21 30.292-53.174 65.7-87.178 99.704s-69.412 64.964-99.704 87.178c-51.574 37.82-76.592 42.194-90.924 42.194h-496c-44.112 0-80-35.888-80-80v-864c0-44.112 35.886-80 80-80h736c44.112 0 80 35.888 80 80v624c0 14.332-4.372 39.35-42.194 90.924v0zM785.374 721.374c30.7-30.7 54.8-58.398 72.58-81.374h-153.954v153.946c22.982-17.78 50.678-41.878 81.374-72.572v0zM896-48c0-8.672-7.328-16-16-16h-736c-8.672 0-16 7.328-16 16v864c0 8.672 7.328 16 16 16 0 0 495.956 0.002 496 0v-224c0-17.672 14.324-32 32-32h224v-624z" />
<glyph unicode="&#xeae3;" glyph-name="libreoffice2" d="M534.626 873.372c-12.444 12.444-37.026 22.628-54.626 22.628h-384c-17.6 0-32-14.4-32-32v-960c0-17.6 14.4-32 32-32h768c17.6 0 32 14.4 32 32v576c0 17.6-10.182 42.182-22.626 54.626l-338.748 338.746zM832-64h-704v896h351.158c2.916-0.48 8.408-2.754 10.81-4.478l337.556-337.554c1.722-2.402 3.996-7.894 4.476-10.81v-543.158zM864 896h-192c-17.6 0-21.818-10.182-9.374-22.626l210.746-210.746c12.446-12.446 22.628-8.228 22.628 9.372v192c0 17.6-14.4 32-32 32z" />
<glyph unicode="&#xeae4;" glyph-name="file-pdf" d="M842.835 292.962c-13.661 13.459-43.957 20.586-90.060 21.193-31.208 0.344-68.769-2.404-108.276-7.936-17.691 10.208-35.927 21.315-50.237 34.692-38.5 35.951-70.637 85.856-90.665 140.731 1.305 5.125 2.416 9.629 3.451 14.226 0 0 21.687 123.18 15.948 164.827-0.793 5.712-1.277 7.369-2.811 11.808l-1.884 4.839c-5.9 13.605-17.465 28.021-35.599 27.235l-10.927 0.344c-20.222 0-36.7-10.342-41.026-25.799-13.151-48.481 0.418-121.010 25.004-214.948l-6.294-15.301c-17.605-42.918-39.669-86.144-59.136-124.279l-2.53-4.959c-20.48-40.079-39.064-74.1-55.911-102.923l-17.393-9.197c-1.265-0.669-31.074-16.434-38.065-20.664-59.314-35.415-98.62-75.616-105.141-107.521-2.074-10.18-0.531-23.209 10.024-29.241l16.822-8.466c7.299-3.656 14.993-5.507 22.876-5.507 42.247 0 91.291 52.623 158.853 170.533 78.006 25.395 166.815 46.503 244.651 58.147 59.316-33.401 132.271-56.599 178.316-56.599 8.176 0 15.227 0.781 20.952 2.296 8.831 2.338 16.274 7.375 20.812 14.208 8.935 13.445 10.744 31.963 8.32 50.926-0.721 5.627-5.215 12.586-10.078 17.337zM211.853 68.175c7.706 21.063 38.197 62.705 83.287 99.653 2.835 2.298 9.818 8.841 16.21 14.917-47.15-75.197-78.725-105.169-99.497-114.57zM478.902 683.137c13.579 0 21.305-34.227 21.945-66.319s-6.865-54.613-16.174-71.278c-7.71 24.672-11.437 63.562-11.437 88.991 0 0-0.567 48.605 5.666 48.605v0zM399.242 244.901c9.459 16.933 19.301 34.79 29.359 53.73 24.516 46.361 39.997 82.637 51.528 112.456 22.932-41.725 51.494-77.195 85.067-105.615 4.19-3.545 8.628-7.109 13.289-10.66-68.277-13.509-127.288-29.939-179.243-49.911v0zM829.712 248.747c-4.156-2.601-16.068-4.104-23.731-4.104-24.732 0-55.326 11.305-98.222 29.695 16.484 1.219 31.593 1.84 45.146 1.84 24.806 0 32.151 0.108 56.405-6.078 24.252-6.186 24.562-18.752 20.402-21.353v0zM918.703 653.719c-22.232 30.322-53.226 65.764-87.263 99.801s-69.48 65.028-99.801 87.263c-51.624 37.857-76.667 42.235-91.013 42.235h-496.485c-44.155 0-80.078-35.923-80.078-80.078v-864.845c0-44.155 35.921-80.078 80.078-80.078h736.719c44.155 0 80.078 35.923 80.078 80.078v624.61c0 14.346-4.376 39.388-42.235 91.013v0zM786.142 708.222c30.73-30.73 54.854-58.455 72.651-81.454h-154.104v154.096c23.004-17.797 50.728-41.919 81.454-72.643v0zM896.876-61.904c0-8.68-7.335-16.016-16.016-16.016h-736.719c-8.68 0-16.016 7.335-16.016 16.016v864.845c0 8.68 7.335 16.016 16.016 16.016 0 0 496.441 0.002 496.485 0v-224.219c0-17.689 14.338-32.031 32.031-32.031h224.219v-624.61z" />
<glyph unicode="&#xeae5;" glyph-name="file-word" d="M640.403 406.661h44.253l-51.062-226.399-66.389 318.321h-106.654l-77.189-318.321-57.873 318.321h-111.503l113.203-512.38h108.944l76.369 303.004 68.323-303.004h100.434l129.755 512.38h-170.613v-91.922zM918.703 653.719c-22.232 30.322-53.226 65.764-87.263 99.801s-69.48 65.028-99.801 87.263c-51.624 37.857-76.667 42.235-91.013 42.235h-496.485c-44.155 0-80.078-35.923-80.078-80.078v-864.845c0-44.155 35.921-80.078 80.078-80.078h736.719c44.155 0 80.078 35.923 80.078 80.078v624.61c0 14.346-4.376 39.388-42.235 91.013v0zM786.142 708.222c30.73-30.73 54.854-58.455 72.651-81.454h-154.104v154.096c23.004-17.797 50.728-41.919 81.454-72.643v0zM896.876-61.904c0-8.68-7.335-16.016-16.016-16.016h-736.719c-8.68 0-16.016 7.335-16.016 16.016v864.845c0 8.68 7.335 16.016 16.016 16.016 0 0 496.441 0.002 496.485 0v-224.219c0-17.689 14.338-32.031 32.031-32.031h224.219v-624.61z" />
<glyph unicode="&#xeae6;" glyph-name="file-excel" d="M743.754 498.643h-135.424l-95.826-141.17-95.836 141.17h-135.422l162.321-242.701-183.151-269.799h252.084v91.666h-50.205l50.205 75.067 111.505-166.733h140.581l-183.155 269.799 162.323 242.701zM918.703 653.719c-22.232 30.322-53.226 65.764-87.263 99.801s-69.48 65.028-99.801 87.263c-51.624 37.857-76.667 42.235-91.013 42.235h-496.485c-44.155 0-80.078-35.923-80.078-80.078v-864.845c0-44.155 35.921-80.078 80.078-80.078h736.719c44.155 0 80.078 35.923 80.078 80.078v624.61c0 14.346-4.376 39.388-42.235 91.013v0zM786.142 708.222c30.73-30.73 54.854-58.455 72.651-81.454h-154.104v154.096c23.004-17.797 50.728-41.919 81.454-72.643v0zM896.876-61.904c0-8.68-7.335-16.016-16.016-16.016h-736.719c-8.68 0-16.016 7.335-16.016 16.016v864.845c0 8.68 7.335 16.016 16.016 16.016 0 0 496.441 0.002 496.485 0v-224.219c0-17.689 14.338-32.031 32.031-32.031h224.219v-624.61z" />
<glyph unicode="&#xeae7;" glyph-name="libreoffice" d="M535.149 860.368c-12.456 12.456-37.062 22.65-54.679 22.65h-384.375c-17.617 0-32.031-14.414-32.031-32.031v-960.938c0-17.617 14.414-32.031 32.031-32.031h768.751c17.617 0 32.031 14.414 32.031 32.031v576.563c0 17.617-10.192 42.223-22.648 54.679l-339.079 339.077zM832.813-77.92h-704.688v896.876h351.501c2.919-0.48 8.416-2.757 10.821-4.482l337.886-337.884c1.724-2.404 4-7.902 4.48-10.821v-543.689zM864.845 883.019h-192.188c-17.617 0-21.839-10.192-9.383-22.648l210.952-210.952c12.458-12.458 22.65-8.236 22.65 9.381v192.188c0 17.617-14.414 32.031-32.031 32.031z" />
<glyph unicode="&#xf003;" glyph-name="envelope" d="M952.716-23.148v439.715q-18.322-20.611-39.507-37.788-153.443-117.944-243.905-193.521-29.2-24.619-47.521-38.36t-49.525-27.768-58.685-14.028h-1.145q-27.483 0-58.685 14.028t-49.525 27.768-47.521 38.36q-90.462 75.577-243.905 193.521-21.185 17.177-39.507 37.788v-439.715q0-7.443 5.439-12.883t12.883-5.439h842.788q7.443 0 12.883 5.439t5.439 12.883zM952.716 578.598v14.028t-0.286 7.443-1.718 7.157-3.149 5.153-5.153 4.294-8.016 1.431h-842.788q-7.443 0-12.883-5.439t-5.439-12.883q0-96.188 84.164-162.604 110.502-87.027 229.591-181.497 3.435-2.863 20.040-16.889t26.338-21.471 25.479-18.036 28.913-15.744 24.619-5.153h1.145q11.451 0 24.619 5.153t28.913 15.744 25.479 18.036 26.338 21.471 20.040 16.889q119.089 94.47 229.591 181.497 30.917 24.619 57.541 66.13t26.623 75.29zM1026.003 599.783v-622.93q0-37.788-26.909-64.697t-64.697-26.909h-842.788q-37.788 0-64.697 26.909t-26.909 64.697v622.93q0 37.788 26.909 64.697t64.697 26.909h842.788q37.788 0 64.697-26.909t26.909-64.697z" />
<glyph unicode="&#xf007;" glyph-name="user" horiz-adv-x="807" d="M806.144 33.534q0-68.705-41.796-108.498t-111.073-39.792h-500.406q-69.279 0-111.073 39.792t-41.796 108.498q0 30.346 2.004 59.259t8.016 62.408 15.173 62.122 24.619 55.823 35.499 46.376 48.953 30.631 63.838 11.451q5.153 0 24.046-12.31t42.655-27.483 61.834-27.483 76.436-12.31 76.436 12.31 61.834 27.483 42.655 27.483 24.046 12.31q34.925 0 63.838-11.451t48.953-30.631 35.499-46.376 24.619-55.823 15.173-62.122 8.016-62.408 2.004-59.259zM622.93 544.818q0-91.035-64.412-155.447t-155.447-64.412-155.447 64.412-64.412 155.447 64.412 155.447 155.447 64.412 155.447-64.412 64.412-155.447z" />
<glyph unicode="&#xf00d;" glyph-name="discard" horiz-adv-x="807" d="M743.165 81.055q0-22.901-16.032-38.933l-77.866-77.866q-16.032-16.032-38.933-16.032t-38.933 16.032l-168.328 168.328-168.328-168.328q-16.032-16.032-38.933-16.032t-38.933 16.032l-77.866 77.866q-16.032 16.032-16.032 38.933t16.032 38.933l168.328 168.328-168.328 168.328q-16.032 16.032-16.032 38.933t16.032 38.933l77.866 77.866q16.032 16.032 38.933 16.032t38.933-16.032l168.328-168.328 168.328 168.328q16.032 16.032 38.933 16.032t38.933-16.032l77.866-77.866q16.032-16.032 16.032-38.933t-16.032-38.933l-168.328-168.328 168.328-168.328q16.032-16.032 16.032-38.933z" />
<glyph unicode="&#xf014;" glyph-name="trash" horiz-adv-x="808" d="M293.43 403.118v-330.109q0-8.024-5.158-13.182t-13.182-5.158h-36.679q-8.024 0-13.182 5.158t-5.158 13.182v330.109q0 8.024 5.158 13.182t13.182 5.158h36.679q8.024 0 13.182-5.158t5.158-13.182zM440.145 403.118v-330.109q0-8.024-5.158-13.182t-13.182-5.158h-36.679q-8.024 0-13.182 5.158t-5.158 13.182v330.109q0 8.024 5.158 13.182t13.182 5.158h36.679q8.024 0 13.182-5.158t5.158-13.182zM586.861 403.118v-330.109q0-8.024-5.158-13.182t-13.182-5.158h-36.679q-8.024 0-13.182 5.158t-5.158 13.182v330.109q0 8.024 5.158 13.182t13.182 5.158h36.679q8.024 0 13.182-5.158t5.158-13.182zM660.218-11.811v543.305h-513.502v-543.305q0-12.607 4.012-23.212t8.31-15.474 6.018-4.872h476.825q1.72 0 6.018 4.872t8.31 15.474 4.012 23.212zM275.091 604.851h256.751l-27.51 67.052q-4.012 5.158-9.743 6.304h-181.674q-5.732-1.146-9.743-6.304zM806.932 586.512v-36.679q0-8.024-5.158-13.182t-13.182-5.158h-55.019v-543.305q0-47.567-26.935-82.24t-64.76-34.673h-476.825q-37.825 0-64.76 33.528t-26.935 81.094v545.597h-55.019q-8.024 0-13.182 5.158t-5.158 13.182v36.679q0 8.024 5.158 13.182t13.182 5.158h177.090l40.117 95.708q8.595 21.206 30.947 36.105t45.275 14.902h183.394q22.923 0 45.275-14.902t30.947-36.105l40.117-95.708h177.090q8.024 0 13.182-5.158t5.158-13.182z" />
<glyph unicode="&#xf01c;" glyph-name="inbox" d="M585.714 288.318h180.925q-0.573 1.718-1.431 4.579t-1.431 4.579l-121.38 283.983h-405.362l-121.38-283.983q-0.573-1.145-1.431-4.579t-1.431-4.579h180.925l54.392-109.928h183.215zM879.431 271.141v-275.967q0-14.887-10.879-25.764t-25.764-10.879h-806.144q-14.887 0-25.764 10.879t-10.879 25.764v275.967q0 35.499 14.314 70.424l136.266 316.046q5.726 14.314 20.897 24.046t30.058 9.733h476.359q14.887 0 30.058-9.733t20.897-24.046l136.266-316.046q14.314-34.925 14.314-70.424z" />
<glyph unicode="&#xf053;" glyph-name="back" horiz-adv-x="732" d="M669.797 678.819l-303.726-303.726 303.726-303.726q10.868-10.868 10.868-25.739t-10.868-25.739l-94.95-94.95q-10.868-10.868-25.739-10.868t-25.739 10.868l-424.414 424.414q-10.868 10.868-10.868 25.739t10.868 25.739l424.414 424.414q10.868 10.868 25.739 10.868t25.739-10.868l94.95-94.95q10.868-10.868 10.868-25.739t-10.868-25.739z" />
<glyph unicode="&#xf064;" glyph-name="forward" d="M1026.003 471.533q0-14.887-10.879-25.764l-293.143-293.143q-10.879-10.879-25.764-10.879t-25.764 10.879-10.879 25.764v146.572h-128.25q-56.11 0-100.482-3.435t-88.172-12.31-76.148-24.334-60.404-39.792-45.804-57.826-27.768-79.297-10.020-103.631q0-31.491 2.863-70.424 0-3.435 1.431-13.455t1.431-15.173q0-8.587-4.867-14.314t-13.455-5.726q-9.161 0-16.032 9.733-4.008 5.153-7.443 12.595t-7.73 17.177-6.012 13.74q-72.713 163.175-72.713 258.218 0 113.936 30.346 190.658 92.752 230.736 500.978 230.736h128.25v146.572q0 14.887 10.879 25.764t25.764 10.879 25.764-10.879l293.143-293.143q10.879-10.879 10.879-25.764z" />
<glyph unicode="&#xf0c7;" glyph-name="floppy-o" horiz-adv-x="880" d="M219.858-27.728h439.715v219.858h-439.715v-219.858zM732.86-27.728h73.286v513.001c0 10.879-9.733 34.354-17.177 41.796l-160.885 160.885c-8.016 8.016-30.346 17.177-41.796 17.177v-238.179c0-30.346-24.619-54.965-54.965-54.965h-329.787c-30.346 0-54.965 24.619-54.965 54.965v238.179h-73.286v-732.86h73.286v238.179c0 30.346 24.619 54.965 54.965 54.965h476.359c30.346 0 54.965-24.619 54.965-54.965v-238.179zM513.001 503.594v183.215c0 9.733-8.587 18.322-18.322 18.322h-109.928c-9.733 0-18.322-8.587-18.322-18.322v-183.215c0-9.733 8.587-18.322 18.322-18.322h109.928c9.733 0 18.322 8.587 18.322 18.322zM879.431 485.273v-531.323c0-30.346-24.619-54.965-54.965-54.965h-769.502c-30.346 0-54.965 24.619-54.965 54.965v769.502c0 30.346 24.619 54.965 54.965 54.965h531.323c30.346 0 72.14-17.177 93.898-38.933l160.313-160.313c21.756-21.756 38.933-63.553 38.933-93.898z" />
<glyph unicode="&#xf0ed;" glyph-name="cloud-download" horiz-adv-x="1099" d="M732.86 320.379c0 10.306-8.016 18.322-18.322 18.322h-128.25v201.537c0 9.733-8.587 18.322-18.322 18.322h-109.928c-9.733 0-18.322-8.587-18.322-18.322v-201.537h-128.25c-10.306 0-18.322-8.587-18.322-18.322 0-4.579 1.718-9.733 5.153-13.169l201.537-201.537c3.435-3.435 8.016-5.153 13.169-5.153 4.579 0 9.733 1.718 13.169 5.153l200.963 200.963c3.435 4.008 5.726 8.587 5.726 13.74zM1099.289 192.129c0-121.38-98.478-219.858-219.858-219.858h-622.93c-141.419 0-256.5 115.081-256.5 256.5 0 99.623 57.826 190.085 147.717 231.881-0.573 8.587-1.145 16.603-1.145 24.619 0 162.030 131.113 293.143 293.143 293.143 119.089 0 226.156-72.14 271.387-182.070 26.338 22.901 60.118 35.499 95.043 35.499 80.729 0 146.572-65.842 146.572-146.572 0-28.054-8.016-55.537-23.475-79.011 99.623-23.475 170.046-112.219 170.046-214.132z" />
<glyph unicode="&#xf0ee;" glyph-name="cloud-upload" horiz-adv-x="1099" d="M732.86 357.023c0 4.579-1.718 9.733-5.153 13.169l-201.537 201.537c-3.435 3.435-8.016 5.153-13.169 5.153-4.579 0-9.733-1.718-13.169-5.153l-200.963-200.963c-3.435-4.008-5.726-8.587-5.726-13.74 0-10.306 8.016-18.322 18.322-18.322h128.25v-201.537c0-9.733 8.587-18.322 18.322-18.322h109.928c9.733 0 18.322 8.587 18.322 18.322v201.537h128.25c10.306 0 18.322 8.587 18.322 18.322zM1099.289 192.129c0-121.38-98.478-219.858-219.858-219.858h-622.93c-141.419 0-256.5 115.081-256.5 256.5 0 99.623 57.826 190.085 147.717 231.881-0.573 8.587-1.145 16.603-1.145 24.619 0 162.030 131.113 293.143 293.143 293.143 119.089 0 226.156-72.14 271.387-182.070 26.338 22.901 60.118 35.499 95.043 35.499 80.729 0 146.572-65.842 146.572-146.572 0-28.054-8.016-55.537-23.475-79.011 99.623-23.475 170.046-112.219 170.046-214.132z" />
<glyph unicode="&#xf106;" glyph-name="angle_up" horiz-adv-x="661" d="M616.089 146.367q0-7.45-5.732-13.182l-28.655-28.655q-5.732-5.732-13.182-5.732t-13.182 5.732l-225.231 225.231-225.231-225.231q-5.732-5.732-13.182-5.732t-13.182 5.732l-28.655 28.655q-5.732 5.732-5.732 13.182t5.732 13.182l267.068 267.068q5.732 5.732 13.182 5.732t13.182-5.732l267.068-267.068q5.732-5.732 5.732-13.182z" />
<glyph unicode="&#xf107;" glyph-name="angle_down" horiz-adv-x="661" d="M616.089 403.118q0-7.45-5.732-13.182l-267.068-267.068q-5.732-5.732-13.182-5.732t-13.182 5.732l-267.068 267.068q-5.732 5.732-5.732 13.182t5.732 13.182l28.655 28.655q5.732 5.732 13.182 5.732t13.182-5.732l225.231-225.231 225.231 225.231q5.732 5.732 13.182 5.732t13.182-5.732l28.655-28.655q5.732-5.732 5.732-13.182z" />
<glyph unicode="&#xf112;" glyph-name="reply" d="M1026.003 196.71q0-95.043-72.713-258.218-1.718-4.008-6.012-13.74t-7.73-17.177-7.443-12.595q-6.871-9.733-16.032-9.733-8.587 0-13.455 5.726t-4.867 14.314q0 5.153 1.431 15.173t1.431 13.455q2.863 38.933 2.863 70.424 0 57.826-10.020 103.631t-27.768 79.297-45.804 57.826-60.404 39.792-76.148 24.334-88.172 12.31-100.482 3.435h-128.25v-146.572q0-14.887-10.879-25.764t-25.764-10.879-25.764 10.879l-293.143 293.143q-10.879 10.879-10.879 25.764t10.879 25.764l293.143 293.143q10.879 10.879 25.764 10.879t25.764-10.879 10.879-25.764v-146.572h128.25q408.226 0 500.978-230.736 30.346-76.721 30.346-190.658z" />
<glyph unicode="&#xf1d9;" glyph-name="paper-plane-o" horiz-adv-x="1027" d="M1009.971 845.405c12.024-8.587 17.748-22.33 15.459-36.643l-146.572-879.431c-1.718-10.879-8.587-20.040-18.322-25.764-5.153-2.863-11.451-4.579-17.748-4.579-4.579 0-9.161 1.145-13.74 2.863l-301.732 123.097-170.619-187.223c-6.871-8.016-16.603-12.024-26.909-12.024-4.579 0-9.161 0.573-13.169 2.29-14.314 5.726-23.475 19.467-23.475 34.354v258.791l-270.242 110.502c-13.169 5.153-21.756 17.177-22.901 31.491-1.145 13.74 6.298 26.909 18.322 33.78l952.716 549.644c12.024 7.443 27.483 6.871 38.933-1.145zM814.16-12.842l126.533 757.479-821.032-473.495 192.376-78.44 494.108 365.857-273.677-456.32z" />
</font>
</defs>
</svg>
